<svg width="100" height="100" viewBox="0 0 100 100" fill="none" xmlns="http://www.w3.org/2000/svg">
<path d="M67.9587 83.9587C67.792 83.042 67.7087 82.167 67.7087 81.2503C67.7087 80.8753 67.7087 80.542 67.7503 80.2087H32.2503C32.292 80.542 32.292 80.8753 32.292 81.2503C32.292 82.167 32.2087 83.042 32.042 83.917C31.8753 84.792 31.5837 85.667 31.2503 86.4587H68.7503C68.3753 85.667 68.1253 84.8337 67.9587 83.9587ZM16.0837 32.042C15.2087 31.8753 14.3337 31.5837 13.542 31.2503V68.7503C14.3337 68.3753 15.167 68.1253 16.042 67.9587C16.9587 67.792 17.8337 67.7087 18.7503 67.7087C19.1253 67.7087 19.4587 67.7087 19.792 67.7503V32.2503C19.4587 32.292 19.1253 32.292 18.7503 32.292C17.8337 32.292 16.9587 32.2087 16.0837 32.042ZM83.9587 32.042C83.042 32.2087 82.167 32.292 81.2503 32.292C80.8753 32.292 80.542 32.292 80.2087 32.2503V67.7503C80.542 67.7087 80.8753 67.7087 81.2503 67.7087C82.167 67.7087 83.042 67.792 83.917 67.9587C84.792 68.1253 85.667 68.417 86.4587 68.7503V31.2503C85.667 31.6253 84.8337 31.8753 83.9587 32.042ZM68.7503 13.542H31.2503C31.6253 14.3337 31.8753 15.167 32.042 16.042C32.2087 16.9587 32.292 17.8337 32.292 18.7503C32.292 19.1253 32.292 19.4587 32.2503 19.792H67.7503C67.7087 19.4587 67.7087 19.1253 67.7087 18.7503C67.7087 17.8337 67.792 16.9587 67.9587 16.0837C68.1253 15.2087 68.417 14.3337 68.7503 13.542Z" fill="#A3A3A3"/>
<path d="M32.2913 18.7497C32.2913 19.1247 32.2913 19.458 32.2497 19.7913C32.1663 20.8747 31.958 21.8747 31.6247 22.8747C31.5413 23.2497 31.3747 23.6663 31.208 24.0413C31.1247 24.2497 30.9997 24.4997 30.8747 24.7497C30.7497 24.9997 30.6247 25.2497 30.458 25.4997C29.2913 27.583 27.583 29.2913 25.4997 30.458C25.2497 30.6247 24.9997 30.7497 24.7497 30.8747C24.4997 30.9997 24.2497 31.1247 24.0413 31.208C23.6663 31.3747 23.2497 31.5413 22.8747 31.6247C21.8747 31.958 20.8747 32.1663 19.7913 32.2497C19.458 32.2913 19.1247 32.2913 18.7497 32.2913C17.833 32.2913 16.958 32.208 16.083 32.0413C15.208 31.8747 14.333 31.583 13.5413 31.2497C8.58301 29.1663 5.20801 24.2497 5.20801 18.7497C5.20801 11.2913 11.2913 5.20801 18.7497 5.20801C24.2913 5.20801 29.1663 8.58301 31.2497 13.5413C31.6247 14.333 31.8747 15.1663 32.0413 16.0413C32.208 16.958 32.2913 17.833 32.2913 18.7497Z" fill="#676363"/>
<path d="M94.7913 18.7497C94.7913 24.2913 91.4163 29.1663 86.458 31.2497C85.6663 31.6247 84.833 31.8747 83.958 32.0413C83.0413 32.208 82.1663 32.2913 81.2497 32.2913C80.8747 32.2913 80.5413 32.2913 80.208 32.2497C79.083 32.1663 78.0413 31.958 76.9997 31.583C76.6663 31.4997 76.2913 31.3747 75.958 31.208C75.708 31.1247 75.4997 30.9997 75.2497 30.8747C74.9997 30.7497 74.7497 30.6247 74.4997 30.458C72.4163 29.2913 70.708 27.583 69.5413 25.4997C69.3747 25.2497 69.2497 24.9997 69.1247 24.7497C68.9997 24.4997 68.8747 24.2913 68.7913 24.0413C68.6247 23.708 68.4997 23.333 68.4163 22.9997C68.0413 21.958 67.833 20.9163 67.7497 19.7913C67.708 19.458 67.708 19.1247 67.708 18.7497C67.708 17.833 67.7913 16.958 67.958 16.083C68.1247 15.208 68.4163 14.333 68.7497 13.5413C70.833 8.58301 75.7497 5.20801 81.2497 5.20801C88.708 5.20801 94.7913 11.2913 94.7913 18.7497Z" fill="#676363"/>
<path d="M32.2913 81.2497C32.2913 82.1663 32.208 83.0413 32.0413 83.9163C31.8747 84.7913 31.583 85.6663 31.2497 86.458C29.1663 91.4163 24.2497 94.7913 18.7497 94.7913C11.2913 94.7913 5.20801 88.708 5.20801 81.2497C5.20801 75.708 8.58301 70.833 13.5413 68.7497C14.333 68.3747 15.1663 68.1247 16.0413 67.958C16.958 67.7913 17.833 67.708 18.7497 67.708C19.1247 67.708 19.458 67.708 19.7913 67.7497C20.833 67.833 21.833 68.0413 22.7913 68.333C23.1247 68.4163 23.4997 68.5413 23.833 68.708C24.1247 68.833 24.4163 68.958 24.7497 69.1247C24.9997 69.2497 25.2497 69.3747 25.4997 69.5413C27.583 70.708 29.2913 72.4163 30.458 74.4997C30.6247 74.7497 30.7497 74.9997 30.8747 75.2497C31.0413 75.583 31.1663 75.8747 31.2913 76.1663C31.458 76.4997 31.583 76.8747 31.6663 77.208C31.958 78.1663 32.1663 79.1663 32.2497 80.208C32.2913 80.5413 32.2913 80.8747 32.2913 81.2497Z" fill="#676363"/>
<path d="M94.7913 81.2497C94.7913 88.708 88.708 94.7913 81.2497 94.7913C75.708 94.7913 70.833 91.4163 68.7497 86.458C68.3747 85.6663 68.1247 84.833 67.958 83.958C67.7913 83.0413 67.708 82.1663 67.708 81.2497C67.708 80.8747 67.708 80.5413 67.7497 80.208C67.7497 80.083 67.7497 79.958 67.7913 79.833C67.833 79.3747 67.9163 78.958 67.9997 78.4997C68.208 77.3747 68.583 76.2913 69.1247 75.2497C69.2497 74.9997 69.3747 74.7497 69.5413 74.4997C70.708 72.4163 72.4163 70.708 74.4997 69.5413C74.7497 69.3747 74.9997 69.2497 75.2497 69.1247C76.2913 68.583 77.3747 68.208 78.4997 67.9997C78.958 67.9163 79.3747 67.833 79.833 67.7913C79.958 67.7497 80.083 67.7497 80.208 67.7497C80.5413 67.708 80.8747 67.708 81.2497 67.708C82.1663 67.708 83.0413 67.7913 83.9163 67.958C84.7913 68.1247 85.6663 68.4163 86.458 68.7497C91.4163 70.833 94.7913 75.7497 94.7913 81.2497Z" fill="#676363"/>
</svg>
