<svg width="34" height="16" viewBox="0 0 34 16" fill="none" xmlns="http://www.w3.org/2000/svg">
<rect width="34" height="16" rx="4" fill="#DDA65E" fill-opacity="0.1"/>
<path d="M12.8906 10H13.0234V9.10547H12.9062C12.6979 9.10547 12.5378 9.04297 12.4258 8.91797C12.3164 8.79036 12.2474 8.63021 12.2188 8.4375L11.8672 5.99219L11.1016 6.14844L11.1289 6.33594C10.819 6.42969 10.5391 6.53646 10.2891 6.65625C10.0417 6.77604 9.82943 6.91146 9.65234 7.0625C9.47526 7.21094 9.33854 7.3763 9.24219 7.55859C9.14844 7.74089 9.10156 7.94401 9.10156 8.16797C9.10156 8.56901 9.23438 8.8776 9.5 9.09375C9.76823 9.3099 10.1029 9.41797 10.5039 9.41797C10.7044 9.41797 10.8867 9.38281 11.0508 9.3125C11.2148 9.24219 11.3776 9.13802 11.5391 9C11.5938 9.21094 11.6784 9.39193 11.793 9.54297C11.9102 9.69141 12.0599 9.80469 12.2422 9.88281C12.4245 9.96094 12.6406 10 12.8906 10ZM11.3594 7.9375C11.3594 8.07292 11.3164 8.1901 11.2305 8.28906C11.1471 8.38542 11.0404 8.45833 10.9102 8.50781C10.7799 8.55469 10.6445 8.57812 10.5039 8.57812C10.3294 8.57812 10.1901 8.53906 10.0859 8.46094C9.98177 8.38281 9.92969 8.27083 9.92969 8.125C9.92969 8.02865 9.95964 7.9375 10.0195 7.85156C10.082 7.76562 10.1706 7.68229 10.2852 7.60156C10.3997 7.52083 10.5391 7.44271 10.7031 7.36719C10.8672 7.29167 11.0508 7.21745 11.2539 7.14453L11.3359 7.69141C11.3438 7.73568 11.349 7.77865 11.3516 7.82031C11.3568 7.85938 11.3594 7.89844 11.3594 7.9375ZM13.3125 10C13.7266 10 14.0495 9.92708 14.2812 9.78125C14.5156 9.63281 14.6797 9.42969 14.7734 9.17188C14.8698 8.91146 14.918 8.61068 14.918 8.26953C14.918 8.0612 14.9036 7.83594 14.875 7.59375C14.8464 7.35156 14.7995 7.11458 14.7344 6.88281L13.9141 7.10156C13.9818 7.35417 14.0299 7.59245 14.0586 7.81641C14.0898 8.03776 14.1055 8.22135 14.1055 8.36719C14.1055 8.61979 14.0456 8.80599 13.9258 8.92578C13.8086 9.04557 13.6016 9.10547 13.3047 9.10547H12.8828V10H13.3125ZM13.9727 5.11328L13.3477 5.73828L13.9727 6.36328L14.5977 5.73828L13.9727 5.11328ZM15.8438 4.53906V8.28125C15.8438 8.86719 15.9714 9.30078 16.2266 9.58203C16.4818 9.86068 16.8776 10 17.4141 10H17.5078V9.10547H17.4141C17.1484 9.10547 16.9609 9.04427 16.8516 8.92188C16.7422 8.79688 16.6875 8.57031 16.6875 8.24219V4.53906H15.8438ZM20.043 10C20.2591 10 20.4635 9.95312 20.6562 9.85938C20.8516 9.76302 21.0195 9.625 21.1602 9.44531C21.2617 9.61458 21.3932 9.75 21.5547 9.85156C21.7188 9.95052 21.9219 10 22.1641 10C22.4896 9.9974 22.7474 9.91536 22.9375 9.75391C23.1276 9.59245 23.263 9.3776 23.3438 9.10938C23.4271 8.84115 23.4688 8.54427 23.4688 8.21875C23.4688 8.00781 23.4531 7.79427 23.4219 7.57812C23.3932 7.35938 23.3477 7.14062 23.2852 6.92188L22.4648 7.13672C22.5221 7.34245 22.569 7.54818 22.6055 7.75391C22.6419 7.95703 22.6602 8.14062 22.6602 8.30469C22.6602 8.45312 22.6419 8.58854 22.6055 8.71094C22.5716 8.83073 22.5169 8.92708 22.4414 9C22.3685 9.07031 22.2721 9.10547 22.1523 9.10547C22.0247 9.10547 21.9193 9.07161 21.8359 9.00391C21.7526 8.93359 21.6888 8.84245 21.6445 8.73047C21.6029 8.61849 21.5781 8.5 21.5703 8.375L21.5 7.47266L20.7031 7.57031C20.7109 7.67448 20.7188 7.77214 20.7266 7.86328C20.7344 7.95182 20.7396 8.03125 20.7422 8.10156C20.7448 8.16927 20.7461 8.22396 20.7461 8.26562C20.7461 8.52344 20.6927 8.72786 20.5859 8.87891C20.4792 9.02995 20.3008 9.10547 20.0508 9.10547C19.9128 9.10547 19.7969 9.07292 19.7031 9.00781C19.6094 8.9401 19.5365 8.85156 19.4844 8.74219C19.4349 8.63021 19.4062 8.50781 19.3984 8.375L19.3281 7.47266L18.5312 7.57031C18.5391 7.67448 18.5456 7.77214 18.5508 7.86328C18.5586 7.95182 18.5638 8.02995 18.5664 8.09766C18.5716 8.16536 18.5742 8.22135 18.5742 8.26562C18.5742 8.56771 18.4974 8.78385 18.3438 8.91406C18.1927 9.04167 17.9609 9.10547 17.6484 9.10547H17.3672V10H17.6406C17.9714 10 18.2396 9.95182 18.4453 9.85547C18.651 9.75911 18.8203 9.6237 18.9531 9.44922C19.0573 9.62109 19.194 9.75651 19.3633 9.85547C19.5326 9.95182 19.7591 10 20.043 10ZM23.3555 12.1133C23.8529 12.0169 24.2708 11.8424 24.6094 11.5898C24.9479 11.3372 25.2044 11.0208 25.3789 10.6406C25.5534 10.2604 25.6406 9.82812 25.6406 9.34375C25.6406 9.07292 25.6146 8.79297 25.5625 8.50391C25.513 8.21484 25.4401 7.93359 25.3438 7.66016L24.5195 7.93359C24.6055 8.1888 24.6784 8.44922 24.7383 8.71484C24.7982 8.98047 24.8281 9.22786 24.8281 9.45703C24.8281 9.79036 24.7643 10.0781 24.6367 10.3203C24.5091 10.5651 24.3138 10.7682 24.0508 10.9297C23.7904 11.0938 23.4583 11.2201 23.0547 11.3086L23.3555 12.1133Z" fill="#DDA65E"/>
</svg>
