<svg width="13" height="13" viewBox="0 0 13 13" fill="none" xmlns="http://www.w3.org/2000/svg">
<path opacity="0.4" d="M8.56429 1.05798H4.13139C2.20588 1.05798 1.05798 2.20588 1.05798 4.13139V8.559C1.05798 10.4898 2.20588 11.6377 4.13139 11.6377H8.559C10.4845 11.6377 11.6324 10.4898 11.6324 8.56429V4.13139C11.6377 2.20588 10.4898 1.05798 8.56429 1.05798Z" fill="#DDA65E"/>
<path d="M7.01432 8.61188C6.91382 8.61188 6.81331 8.57485 6.73396 8.4955L4.86664 6.62818C4.71324 6.47477 4.71324 6.22086 4.86664 6.06746L6.73396 4.20014C6.88737 4.04673 7.14128 4.04673 7.29468 4.20014C7.44809 4.35354 7.44809 4.60746 7.29468 4.76086L5.70773 6.34782L7.29468 7.93478C7.44809 8.08818 7.44809 8.34209 7.29468 8.4955C7.22063 8.57485 7.12012 8.61188 7.01432 8.61188Z" fill="#DDA65E"/>
</svg>
