<svg width="16" height="16" viewBox="0 0 16 16" fill="none" xmlns="http://www.w3.org/2000/svg">
<path opacity="0.4" d="M10.7934 1.33331H5.20671C2.78004 1.33331 1.33337 2.77998 1.33337 5.20665V10.7866C1.33337 13.22 2.78004 14.6666 5.20671 14.6666H10.7867C13.2134 14.6666 14.66 13.22 14.66 10.7933V5.20665C14.6667 2.77998 13.22 1.33331 10.7934 1.33331Z" fill="#95DD91"/>
<path d="M8.83995 10.8533C8.71328 10.8533 8.58661 10.8066 8.48661 10.7066L6.13328 8.35332C5.93995 8.15998 5.93995 7.83998 6.13328 7.64665L8.48661 5.29332C8.67995 5.09998 8.99995 5.09998 9.19328 5.29332C9.38661 5.48665 9.38661 5.80665 9.19328 5.99998L7.19328 7.99998L9.19328 9.99998C9.38661 10.1933 9.38661 10.5133 9.19328 10.7066C9.09995 10.8066 8.97328 10.8533 8.83995 10.8533Z" fill="#95DD91"/>
</svg>
