<svg width="45" height="16" viewBox="0 0 45 16" fill="none" xmlns="http://www.w3.org/2000/svg">
<rect width="45" height="16" rx="4" fill="#99D3B9" fill-opacity="0.3"/>
<path d="M13.0625 10C13.3958 10 13.7122 9.97786 14.0117 9.93359C14.3138 9.88672 14.582 9.80208 14.8164 9.67969C15.0534 9.55729 15.2383 9.38281 15.3711 9.15625C15.5065 8.92708 15.5742 8.62891 15.5742 8.26172C15.5742 8.16536 15.5677 8.03385 15.5547 7.86719C15.5417 7.70052 15.5208 7.52865 15.4922 7.35156C15.4635 7.17448 15.4271 7.01953 15.3828 6.88672L14.5664 7.10938C14.6289 7.34896 14.6758 7.58724 14.707 7.82422C14.7409 8.05859 14.7578 8.23568 14.7578 8.35547C14.7578 8.52995 14.7044 8.66797 14.5977 8.76953C14.4935 8.87109 14.3555 8.94661 14.1836 8.99609C14.0143 9.04297 13.832 9.07292 13.6367 9.08594C13.4414 9.09896 13.2526 9.10547 13.0703 9.10547H12.2344C11.8958 9.10547 11.5911 9.08724 11.3203 9.05078C11.0521 9.01172 10.8216 8.94922 10.6289 8.86328C10.4388 8.77734 10.2917 8.66146 10.1875 8.51562C10.0859 8.36979 10.0352 8.1888 10.0352 7.97266C10.0352 7.84245 10.0521 7.70573 10.0859 7.5625C10.1224 7.41667 10.1615 7.28516 10.2031 7.16797L9.45312 6.88672C9.38281 7.05859 9.32422 7.24219 9.27734 7.4375C9.23307 7.63021 9.21094 7.82812 9.21094 8.03125C9.21094 8.39062 9.27865 8.69531 9.41406 8.94531C9.55208 9.19271 9.7513 9.39453 10.0117 9.55078C10.2721 9.70703 10.5885 9.82161 10.9609 9.89453C11.3359 9.96484 11.7604 10 12.2344 10H13.0625ZM13.0742 5.96875L12.4805 6.56641L13.0742 7.17188L13.6758 6.56641L13.0742 5.96875ZM11.7695 5.96875L11.1719 6.56641L11.7695 7.17188L12.3711 6.56641L11.7695 5.96875ZM16.5 4.53906V8.28125C16.5 8.86719 16.6276 9.30078 16.8828 9.58203C17.138 9.86068 17.5339 10 18.0703 10H18.1641V9.10547H18.0703C17.8047 9.10547 17.6172 9.04427 17.5078 8.92188C17.3984 8.79688 17.3438 8.57031 17.3438 8.24219V4.53906H16.5ZM20.8008 4.83594L20.207 5.43359L20.8008 6.03906L21.4023 5.43359L20.8008 4.83594ZM19.4961 4.83594L18.8984 5.43359L19.4961 6.03906L20.0977 5.43359L19.4961 4.83594ZM20.2031 7.41406C20.2943 7.41406 20.3906 7.44922 20.4922 7.51953C20.5964 7.58724 20.6849 7.67318 20.7578 7.77734C20.8333 7.87891 20.8711 7.97786 20.8711 8.07422C20.8711 8.1862 20.8385 8.29948 20.7734 8.41406C20.7083 8.52604 20.625 8.6276 20.5234 8.71875C20.4245 8.80729 20.3203 8.8776 20.2109 8.92969C20.1146 8.88021 20.0156 8.8099 19.9141 8.71875C19.8151 8.6276 19.7305 8.52604 19.6602 8.41406C19.5924 8.30208 19.5586 8.19141 19.5586 8.08203C19.5586 7.98047 19.5938 7.87891 19.6641 7.77734C19.7344 7.67318 19.819 7.58724 19.918 7.51953C20.0195 7.44922 20.1146 7.41406 20.2031 7.41406ZM21.6797 8.07422C21.6797 7.88932 21.638 7.70703 21.5547 7.52734C21.474 7.34766 21.3633 7.1849 21.2227 7.03906C21.0846 6.89062 20.9271 6.77214 20.75 6.68359C20.5729 6.59505 20.3893 6.55078 20.1992 6.55078C20.0169 6.55078 19.8385 6.59505 19.6641 6.68359C19.4896 6.77214 19.3333 6.89062 19.1953 7.03906C19.0573 7.1849 18.9479 7.34766 18.8672 7.52734C18.7865 7.70443 18.7461 7.88411 18.7461 8.06641C18.7461 8.19141 18.763 8.3112 18.7969 8.42578C18.8307 8.54036 18.8789 8.65234 18.9414 8.76172C19.0039 8.87109 19.0794 8.98047 19.168 9.08984C19.082 9.09505 19.0052 9.09896 18.9375 9.10156C18.8724 9.10417 18.8112 9.10547 18.7539 9.10547C18.6966 9.10547 18.638 9.10547 18.5781 9.10547H18.0234V10H18.6328C18.7604 10 18.9115 9.98958 19.0859 9.96875C19.2604 9.94531 19.444 9.91276 19.6367 9.87109C19.8294 9.82682 20.0156 9.77214 20.1953 9.70703C20.375 9.76953 20.5586 9.82292 20.7461 9.86719C20.9362 9.91146 21.1146 9.94531 21.2812 9.96875C21.4505 9.98958 21.5951 10 21.7148 10H22.1484V9.10547H21.7734C21.7292 9.10547 21.6797 9.10547 21.625 9.10547C21.5729 9.10547 21.5156 9.10547 21.4531 9.10547C21.3906 9.10286 21.3229 9.09896 21.25 9.09375C21.3411 8.98438 21.418 8.8763 21.4805 8.76953C21.5456 8.66016 21.5951 8.54818 21.6289 8.43359C21.6628 8.31901 21.6797 8.19922 21.6797 8.07422ZM21.9922 9.10547V10H22.3047V9.10547H21.9922ZM23.4062 10.5664L22.8125 11.1641L23.4062 11.7695L24.0078 11.1641L23.4062 10.5664ZM22.1016 10.5664L21.5039 11.1641L22.1016 11.7695L22.7031 11.1641L22.1016 10.5664ZM23.3945 7.44922C23.4049 7.57161 23.4128 7.69661 23.418 7.82422C23.4258 7.95182 23.4297 8.08333 23.4297 8.21875C23.4297 8.50521 23.3659 8.72526 23.2383 8.87891C23.1133 9.02995 22.8945 9.10547 22.582 9.10547H22.2148V10H22.582C22.8294 10 23.0651 9.95312 23.2891 9.85938C23.5156 9.76562 23.7018 9.6263 23.8477 9.44141C23.9232 9.55859 24.0117 9.65885 24.1133 9.74219C24.2174 9.82292 24.3398 9.88672 24.4805 9.93359C24.6211 9.97786 24.7839 10 24.9688 10H25.0547V9.10547H24.9766C24.8203 9.10547 24.6901 9.07552 24.5859 9.01562C24.4844 8.95312 24.4062 8.86589 24.3516 8.75391C24.2969 8.63932 24.2656 8.50651 24.2578 8.35547L24.1875 7.35156L23.3945 7.44922ZM27.6914 4.83594L27.0977 5.43359L27.6914 6.03906L28.293 5.43359L27.6914 4.83594ZM26.3867 4.83594L25.7891 5.43359L26.3867 6.03906L26.9883 5.43359L26.3867 4.83594ZM27.0938 7.41406C27.1849 7.41406 27.2812 7.44922 27.3828 7.51953C27.487 7.58724 27.5755 7.67318 27.6484 7.77734C27.724 7.87891 27.7617 7.97786 27.7617 8.07422C27.7617 8.1862 27.7292 8.29948 27.6641 8.41406C27.599 8.52604 27.5156 8.6276 27.4141 8.71875C27.3151 8.80729 27.2109 8.8776 27.1016 8.92969C27.0052 8.88021 26.9062 8.8099 26.8047 8.71875C26.7057 8.6276 26.6211 8.52604 26.5508 8.41406C26.4831 8.30208 26.4492 8.19141 26.4492 8.08203C26.4492 7.98047 26.4844 7.87891 26.5547 7.77734C26.625 7.67318 26.7096 7.58724 26.8086 7.51953C26.9102 7.44922 27.0052 7.41406 27.0938 7.41406ZM28.5703 8.07422C28.5703 7.88932 28.5286 7.70703 28.4453 7.52734C28.3646 7.34766 28.2539 7.1849 28.1133 7.03906C27.9753 6.89062 27.8177 6.77214 27.6406 6.68359C27.4635 6.59505 27.2799 6.55078 27.0898 6.55078C26.9076 6.55078 26.7292 6.59505 26.5547 6.68359C26.3802 6.77214 26.224 6.89062 26.0859 7.03906C25.9479 7.1849 25.8385 7.34766 25.7578 7.52734C25.6771 7.70443 25.6367 7.88411 25.6367 8.06641C25.6367 8.19141 25.6536 8.3112 25.6875 8.42578C25.7214 8.54036 25.7695 8.65234 25.832 8.76172C25.8945 8.87109 25.9701 8.98047 26.0586 9.08984C25.9727 9.09505 25.8958 9.09896 25.8281 9.10156C25.763 9.10417 25.7018 9.10547 25.6445 9.10547C25.5872 9.10547 25.5286 9.10547 25.4688 9.10547H24.9141V10H25.5234C25.651 10 25.8021 9.98958 25.9766 9.96875C26.151 9.94531 26.3346 9.91276 26.5273 9.87109C26.7201 9.82682 26.9062 9.77214 27.0859 9.70703C27.2656 9.76953 27.4492 9.82292 27.6367 9.86719C27.8268 9.91146 28.0052 9.94531 28.1719 9.96875C28.3411 9.98958 28.4857 10 28.6055 10H29.0391V9.10547H28.6641C28.6198 9.10547 28.5703 9.10547 28.5156 9.10547C28.4635 9.10547 28.4062 9.10547 28.3438 9.10547C28.2812 9.10286 28.2135 9.09896 28.1406 9.09375C28.2318 8.98438 28.3086 8.8763 28.3711 8.76953C28.4362 8.66016 28.4857 8.54818 28.5195 8.43359C28.5534 8.31901 28.5703 8.19922 28.5703 8.07422ZM34.5742 9.10547H34.3633C34.1576 9.10547 33.9766 9.09115 33.8203 9.0625C33.6641 9.03385 33.5391 8.98698 33.4453 8.92188C33.3516 8.85677 33.2969 8.77083 33.2812 8.66406C33.4505 8.58854 33.6029 8.53255 33.7383 8.49609C33.8763 8.45964 34.0091 8.4349 34.1367 8.42188V7.58594C34.0013 7.57812 33.8685 7.5625 33.7383 7.53906C33.6107 7.51562 33.4766 7.48047 33.3359 7.43359C33.1953 7.38672 33.0391 7.32552 32.8672 7.25C32.6953 7.17448 32.4987 7.08203 32.2773 6.97266C32.0482 6.86328 31.8281 6.76953 31.6172 6.69141C31.4089 6.61328 31.2031 6.57422 31 6.57422C30.6745 6.57422 30.3802 6.66536 30.1172 6.84766C29.8542 7.02995 29.6354 7.26432 29.4609 7.55078L29.3516 7.73047L30.0703 8.08203L30.2188 7.89062C30.3073 7.77604 30.4206 7.67448 30.5586 7.58594C30.6992 7.49479 30.8451 7.44922 30.9961 7.44922C31.043 7.44922 31.1029 7.45964 31.1758 7.48047C31.2513 7.5013 31.3398 7.53125 31.4414 7.57031C31.5456 7.60677 31.6654 7.65234 31.8008 7.70703C31.9076 7.74609 32.0104 7.78646 32.1094 7.82812C32.2083 7.86719 32.3047 7.90625 32.3984 7.94531C32.4948 7.98438 32.5911 8.02344 32.6875 8.0625C32.3073 8.26042 31.9505 8.4375 31.6172 8.59375C31.2839 8.75 30.9505 8.875 30.6172 8.96875C30.2865 9.0599 29.9323 9.10547 29.5547 9.10547H28.8984V10H29.543C29.9128 10 30.2708 9.95443 30.6172 9.86328C30.9661 9.76953 31.3099 9.64583 31.6484 9.49219C31.9896 9.33854 32.3268 9.17188 32.6602 8.99219C32.7122 9.22917 32.806 9.42188 32.9414 9.57031C33.0768 9.71875 33.2604 9.82812 33.4922 9.89844C33.724 9.96615 34.0091 10 34.3477 10H34.5742V9.10547ZM34.4219 9.10547V10H34.6992V9.10547H34.4219ZM36.1445 5.14453L35.5508 5.73828L36.1445 6.34375L36.7461 5.73828L36.1445 5.14453ZM34.8398 5.14453L34.2422 5.73828L34.8398 6.34375L35.4414 5.73828L34.8398 5.14453ZM35.0312 10C35.4453 10 35.7682 9.92708 36 9.78125C36.2344 9.63281 36.3984 9.42969 36.4922 9.17188C36.5885 8.91146 36.6367 8.61068 36.6367 8.26953C36.6367 8.0612 36.6224 7.83594 36.5938 7.59375C36.5651 7.35156 36.5182 7.11458 36.4531 6.88281L35.6328 7.10156C35.7005 7.35417 35.7487 7.59245 35.7773 7.81641C35.8086 8.03776 35.8242 8.22135 35.8242 8.36719C35.8242 8.61979 35.7643 8.80599 35.6445 8.92578C35.5273 9.04557 35.3203 9.10547 35.0234 9.10547H34.6016V10H35.0312Z" fill="#95DD91"/>
</svg>
